<svg width="60" height="21" viewBox="0 0 60 21" fill="none" xmlns="http://www.w3.org/2000/svg">
<path d="M13.8573 20.4582C13.712 20.4582 13.5681 20.4296 13.4338 20.374C13.2996 20.3183 13.1776 20.2368 13.0749 20.1339C12.9722 20.0311 12.8907 19.9091 12.8352 19.7748C12.7797 19.6405 12.7512 19.4966 12.7513 19.3512V12.6512C12.7512 12.5059 12.7797 12.362 12.8352 12.2277C12.8907 12.0934 12.9722 11.9713 13.0749 11.8685C13.1776 11.7657 13.2996 11.6842 13.4338 11.6285C13.5681 11.5729 13.712 11.5442 13.8573 11.5442H20.2943C20.4498 11.543 20.6038 11.5752 20.7458 11.6387C20.8878 11.7022 21.0145 11.7955 21.1173 11.9122L22.2803 13.2042L23.4923 11.8972C23.596 11.7854 23.7218 11.6964 23.8618 11.6358C24.0017 11.5752 24.1528 11.5443 24.3053 11.5452H29.4193C30.285 11.5037 31.1438 11.7171 31.8893 12.1592C31.9793 11.9765 32.1183 11.8223 32.2908 11.7138C32.4633 11.6054 32.6625 11.5471 32.8663 11.5452H36.5663C37.4065 11.4842 38.2484 11.6373 39.0133 11.9902C39.0933 12.0372 39.1493 12.1002 39.2253 12.1542C39.316 11.9724 39.4553 11.8192 39.6278 11.7117C39.8002 11.6042 39.9991 11.5466 40.2023 11.5452H45.5433C45.7393 11.5469 45.9313 11.6014 46.0989 11.7032C46.2664 11.8049 46.4034 11.9501 46.4953 12.1232C47.1228 11.7214 47.8576 11.5198 48.6023 11.5452H51.8093C52.0367 11.5459 52.2582 11.6174 52.443 11.7499C52.6278 11.8823 52.7666 12.0691 52.8403 12.2842C53.4972 11.777 54.3109 11.5155 55.1403 11.5452H58.3473C58.4927 11.5451 58.6367 11.5736 58.7711 11.6292C58.9054 11.6848 59.0275 11.7664 59.1303 11.8692C59.2332 11.972 59.3147 12.0941 59.3703 12.2284C59.4259 12.3628 59.4544 12.5068 59.4543 12.6522V14.0792C59.4542 14.264 59.4078 14.4458 59.3194 14.6081C59.2311 14.7704 59.1035 14.9079 58.9483 15.0082C58.9605 15.0183 58.9722 15.0289 58.9833 15.0402C59.2587 15.3324 59.4717 15.6776 59.6093 16.0548C59.7468 16.4321 59.806 16.8334 59.7833 17.2342C59.7833 19.2492 58.4313 20.4542 56.1643 20.4542H53.0473C52.8305 20.4547 52.6183 20.391 52.4376 20.2713C52.2568 20.1516 52.1155 19.9811 52.0313 19.7812C51.319 20.2508 50.4778 20.4861 49.6253 20.4542H46.5073C46.3402 20.4518 46.1759 20.4108 46.0273 20.3342C45.8782 20.4103 45.7137 20.4514 45.5463 20.4542H40.2023C40.0321 20.4511 39.865 20.4083 39.7143 20.3292C39.5638 20.4099 39.396 20.4528 39.2253 20.4542H37.6203C37.3279 20.4542 37.0474 20.3386 36.84 20.1325C36.6326 19.9264 36.5151 19.6466 36.5133 19.3542V18.3792C36.5133 18.2842 36.5133 18.1412 36.5133 18.0212C36.4383 18.0212 36.3343 18.0112 36.1873 18.0112H35.5873V19.3542C35.586 19.6468 35.4687 19.9269 35.2612 20.1331C35.0536 20.3393 34.7728 20.4548 34.4803 20.4542H32.8673C32.5747 20.4548 32.2939 20.3393 32.0864 20.1331C31.8789 19.9269 31.7616 19.6468 31.7603 19.3542V17.6542C31.0146 18.0578 30.1734 18.2514 29.3263 18.2142H28.4363V19.3572C28.435 19.6498 28.3177 19.9299 28.1102 20.1361C27.9026 20.3423 27.6218 20.4578 27.3293 20.4572H24.2183C24.062 20.4577 23.9074 20.4248 23.7648 20.3609C23.6222 20.2969 23.4949 20.2033 23.3913 20.0862L22.2313 18.7862L21.0093 20.1082C20.9062 20.2205 20.7808 20.3102 20.6412 20.3715C20.5016 20.4328 20.3508 20.4643 20.1983 20.4642L13.8573 20.4582ZM40.2023 19.3512H45.5433V17.9622L41.7943 17.9542V16.6242H45.4523V15.2562H41.7953V14.0372H45.5443V12.6532H40.2023V19.3512ZM36.1863 16.9062C36.7723 16.9062 37.1283 16.9622 37.3583 17.2012C37.6583 17.5132 37.6193 18.1112 37.6193 18.5132V19.3522H39.2253V18.0232C39.2742 17.5978 39.181 17.1682 38.9603 16.8012C38.7599 16.5424 38.4891 16.3469 38.1803 16.2382C38.5263 16.0884 38.8194 15.8382 39.0215 15.52C39.2237 15.2017 39.3257 14.8301 39.3143 14.4532C39.3341 14.1527 39.267 13.8528 39.1211 13.5893C38.9752 13.3258 38.7565 13.1099 38.4913 12.9672C37.8854 12.7039 37.2234 12.5959 36.5653 12.6532H32.8653V19.3532H34.4743V16.9062H36.1863ZM24.2193 19.3482H27.3303V17.1012H29.3303C30.7303 17.1012 32.1183 16.7182 32.1183 14.8602C32.1183 13.0022 30.6893 12.6492 29.4183 12.6492H24.3023L22.2653 14.8492L20.2933 12.6492H13.8573V19.3492H20.2023L22.2513 17.1332L24.2193 19.3482ZM53.0493 19.3482H56.1673C57.7763 19.3562 58.6753 18.6832 58.6753 17.2392C58.6975 16.9822 58.6664 16.7234 58.5838 16.479C58.5012 16.2347 58.3689 16.01 58.1953 15.8192C57.6761 15.4147 57.0229 15.2221 56.3673 15.2802L55.5073 15.2552C55.2965 15.2656 55.0855 15.2399 54.8833 15.1792C54.7899 15.1407 54.7085 15.0778 54.6478 14.9971C54.5871 14.9163 54.5492 14.8207 54.5382 14.7203C54.5271 14.6198 54.5433 14.5183 54.585 14.4262C54.6268 14.3342 54.6925 14.2551 54.7753 14.1972C54.9719 14.0911 55.1965 14.0485 55.4183 14.0752H58.3533V12.6442H55.1463C53.4663 12.6442 52.8573 13.6642 52.8573 14.6382C52.8573 16.7562 54.7323 16.6612 56.2283 16.7102C56.4299 16.6891 56.6324 16.7417 56.7983 16.8582C56.8614 16.913 56.9116 16.981 56.9453 17.0574C56.979 17.1338 56.9954 17.2167 56.9933 17.3002C56.9937 17.3821 56.9773 17.4633 56.9451 17.5386C56.9129 17.6139 56.8657 17.6819 56.8063 17.7382C56.618 17.8737 56.3855 17.933 56.1553 17.9042H53.0493V19.3482ZM46.5083 19.3482H49.6263C51.2353 19.3562 52.1323 18.6832 52.1323 17.2392C52.155 16.9821 52.124 16.7231 52.0412 16.4786C51.9584 16.2342 51.8256 16.0096 51.6513 15.8192C51.1327 15.4152 50.4802 15.2226 49.8253 15.2802L48.9653 15.2552C48.7545 15.2656 48.5434 15.2399 48.3413 15.1792C48.2474 15.1413 48.1655 15.0785 48.1043 14.9978C48.0432 14.917 48.0051 14.8212 47.994 14.7205C47.9829 14.6198 47.9993 14.518 48.0414 14.4259C48.0836 14.3337 48.1499 14.2547 48.2333 14.1972C48.4296 14.0913 48.6538 14.0487 48.8753 14.0752H51.8123V12.6442H48.6023C46.9223 12.6442 46.3133 13.6642 46.3133 14.6382C46.3133 16.7562 48.1893 16.6612 49.6843 16.7102C49.8859 16.6895 50.0882 16.7421 50.2543 16.8582C50.3174 16.913 50.3676 16.981 50.4013 17.0574C50.435 17.1338 50.4514 17.2167 50.4493 17.3002C50.4497 17.3821 50.4333 17.4633 50.4011 17.5386C50.3689 17.6139 50.3217 17.6819 50.2623 17.7382C50.0732 17.8737 49.8401 17.933 49.6093 17.9042H46.5093L46.5083 19.3482ZM23.2783 16.0172L25.7373 13.3772V18.7472L23.2783 16.0172ZM15.4553 17.9602V16.6182H18.9683V15.2552H15.4563V14.0382H19.4673L21.2183 15.9872L19.3903 17.9552L15.4553 17.9602ZM27.3323 15.7422V14.0362H29.4193C29.9983 14.0362 30.3963 14.2712 30.3983 14.8602C30.4003 15.4492 30.0153 15.7422 29.3983 15.7422H27.3323ZM34.4773 15.5422V14.0422H36.4493C36.71 14.0184 36.9726 14.06 37.2133 14.1632C37.3199 14.2215 37.4078 14.3088 37.4669 14.415C37.526 14.5212 37.5539 14.6419 37.5473 14.7632C37.5535 14.8902 37.5262 15.0165 37.4681 15.1296C37.41 15.2426 37.3231 15.3384 37.2163 15.4072C36.9682 15.5215 36.6943 15.5684 36.4223 15.5432L34.4773 15.5422ZM13.0023 8.92824C12.7882 8.92807 12.5787 8.86582 12.3993 8.74904C12.2198 8.63225 12.0781 8.46593 11.9913 8.27024L11.7813 7.79524V7.81824C11.7813 7.96343 11.7527 8.1072 11.6971 8.24133C11.6415 8.37546 11.56 8.49732 11.4573 8.59994C11.3546 8.70257 11.2326 8.78394 11.0985 8.83941C10.9643 8.89488 10.8205 8.92337 10.6753 8.92324H7.41528C7.19624 8.92433 6.98186 8.86001 6.7996 8.73851C6.61735 8.617 6.47552 8.44385 6.39228 8.24124L6.05928 7.43224H4.20228L3.86428 8.24624C3.78049 8.44756 3.63905 8.61962 3.45774 8.74079C3.27643 8.86196 3.06335 8.92683 2.84528 8.92724H1.10828C0.924846 8.92862 0.743974 8.8841 0.582131 8.79774C0.420289 8.71137 0.282615 8.58591 0.18164 8.43275C0.0806644 8.2796 0.0195945 8.10363 0.00398818 7.92085C-0.0116181 7.73807 0.0187348 7.55429 0.0922843 7.38624L2.95728 0.688237C3.04284 0.489437 3.18474 0.320046 3.36548 0.200979C3.54621 0.0819124 3.75786 0.0183835 3.97428 0.0182365H6.35128C6.56746 0.0183661 6.77887 0.0817867 6.95941 0.200672C7.13996 0.319556 7.28175 0.488703 7.36728 0.687237L7.96728 2.08724V1.12524C7.96715 0.979826 7.9957 0.835817 8.05128 0.70145C8.10687 0.567084 8.1884 0.444997 8.29122 0.342176C8.39404 0.239355 8.51613 0.157819 8.6505 0.102234C8.78487 0.0466486 8.92887 0.018105 9.07428 0.0182365H11.6873C11.8978 0.0195624 12.1036 0.0807174 12.2806 0.194567C12.4577 0.308417 12.5987 0.470267 12.6873 0.661237L13.7343 2.93524L14.6903 0.694237C14.7743 0.494864 14.9149 0.32453 15.0948 0.204362C15.2747 0.0841934 15.4859 0.0194762 15.7023 0.0182365H18.3703C18.5857 0.0238397 18.7946 0.0934649 18.9703 0.218237C19.1458 0.0931908 19.3548 0.0235368 19.5703 0.0182365H24.9163C25.1132 0.0230616 25.3049 0.0822426 25.4703 0.189237C25.6357 0.0830731 25.8268 0.0239576 26.0233 0.0182365H29.7023C30.5629 -0.0577176 31.4278 0.104535 32.2023 0.487237C32.2719 0.535023 32.3386 0.586776 32.4023 0.642237C32.491 0.45728 32.6298 0.300832 32.8028 0.190565C32.9758 0.080298 33.1761 0.0206075 33.3813 0.0182365H35.0163C35.278 0.0202768 35.5303 0.11634 35.7271 0.288901C35.9239 0.461462 36.0521 0.69902 36.0883 0.958237C36.9394 0.284289 38.0099 -0.050581 39.0933 0.0182365H40.6393C40.8783 0.0175858 41.1111 0.0948149 41.3023 0.238237C41.4927 0.0954322 41.7243 0.0182365 41.9623 0.0182365H44.3623C44.5786 0.0177397 44.7903 0.0810347 44.9708 0.200205C45.1513 0.319375 45.2927 0.48913 45.3773 0.688237L45.9653 2.06324V1.12324C45.9655 0.830427 46.0819 0.54967 46.2889 0.342529C46.4958 0.135387 46.7765 0.0187659 47.0693 0.0182365H49.5093C49.6995 0.018822 49.8864 0.0682308 50.052 0.161731C50.2176 0.255232 50.3565 0.389692 50.4553 0.552236L51.2153 1.81424V1.12424C51.2153 0.97891 51.2439 0.835009 51.2996 0.700758C51.3552 0.566506 51.4368 0.444537 51.5396 0.341823C51.6424 0.239108 51.7644 0.157661 51.8987 0.102139C52.033 0.0466157 52.177 0.0181051 52.3223 0.0182365H53.9603C54.2535 0.0185013 54.5347 0.135111 54.7421 0.342469C54.9494 0.549827 55.066 0.830988 55.0663 1.12424V7.81824C55.0669 7.96385 55.0388 8.10816 54.9835 8.24287C54.9282 8.37758 54.8468 8.50003 54.7441 8.60318C54.6413 8.70633 54.5191 8.78815 54.3846 8.84394C54.2501 8.89972 54.1059 8.92837 53.9603 8.92824H51.6943C51.5037 8.92819 51.3163 8.87902 51.1503 8.78549C50.9842 8.69195 50.8451 8.5572 50.7463 8.39424L49.7643 6.76524V7.81824C49.7649 7.96385 49.7368 8.10816 49.6815 8.24287C49.6262 8.37758 49.5448 8.50003 49.4421 8.60318C49.3393 8.70633 49.2171 8.78815 49.0826 8.84394C48.9481 8.89972 48.8039 8.92837 48.6583 8.92824H45.4023C45.184 8.92843 44.9705 8.86395 44.7888 8.74293C44.607 8.62191 44.4653 8.44977 44.3813 8.24824L44.0433 7.43424H42.1973L41.8713 8.23424C41.79 8.43843 41.6493 8.61359 41.4675 8.73711C41.2857 8.86063 41.0711 8.92685 40.8513 8.92724H38.9763C37.9371 8.96342 36.9159 8.64965 36.0763 8.03624C36.0297 8.28523 35.8979 8.51026 35.7036 8.67281C35.5093 8.83536 35.2646 8.9253 35.0113 8.92724H33.3803C33.2053 8.92337 33.0338 8.8774 32.8803 8.79324C32.727 8.87792 32.5554 8.92392 32.3803 8.92724H30.7693C30.477 8.92698 30.1966 8.81123 29.9893 8.60519C29.7819 8.39916 29.6644 8.11953 29.6623 7.82724L29.6563 6.98224V6.83524C29.6563 6.74524 29.6563 6.61024 29.6513 6.49724C29.5783 6.49724 29.4793 6.48824 29.3403 6.48824H28.7283V7.82324C28.7283 8.11657 28.6118 8.39788 28.4043 8.6053C28.1969 8.81271 27.9156 8.92924 27.6223 8.92924H26.0223C25.8251 8.92403 25.6332 8.86489 25.4673 8.75824C25.3019 8.86518 25.1102 8.92436 24.9133 8.92924H19.5673C19.3519 8.92351 19.143 8.8539 18.9673 8.72924C18.7914 8.85363 18.5826 8.92321 18.3673 8.92924H16.7333C16.5883 8.93003 16.4446 8.90216 16.3105 8.84723C16.1763 8.79231 16.0544 8.71141 15.9516 8.60918C15.8488 8.50696 15.7672 8.38543 15.7116 8.25158C15.6559 8.11773 15.6273 7.9742 15.6273 7.82924V7.79724L15.4153 8.27124C15.3293 8.46766 15.1878 8.63468 15.0082 8.75176C14.8286 8.86884 14.6187 8.93087 14.4043 8.93024L13.0023 8.92824ZM51.6933 7.81824H53.9613V1.11824H52.3223V5.78824L49.5093 1.11824H47.0693V7.45724L44.3613 1.11824H41.9613L39.7023 6.38924H38.9853C38.5824 6.42411 38.1818 6.29992 37.8693 6.04324C37.5357 5.59079 37.3786 5.03224 37.4273 4.47224C37.3873 3.92689 37.5508 3.38607 37.8863 2.95424C38.05 2.80205 38.245 2.68742 38.4576 2.61834C38.6702 2.54925 38.8954 2.52738 39.1173 2.55424H40.6323V1.11824H39.0863C38.6494 1.077 38.2087 1.12487 37.7908 1.25895C37.3729 1.39302 36.9866 1.61051 36.6553 1.89824C36.3472 2.25736 36.1129 2.67369 35.9659 3.12343C35.8188 3.57316 35.7619 4.04747 35.7983 4.51924C35.7571 4.98166 35.8122 5.44761 35.96 5.88769C36.1079 6.32778 36.3453 6.73246 36.6573 7.07624C37.3097 7.60371 38.1359 7.86772 38.9733 7.81624H40.8483L41.4483 6.32224H44.7753L45.4023 7.81824H48.6593V2.79424L51.6933 7.81824ZM33.3813 7.81824H35.0163V1.11824H33.3813V7.81824ZM26.0203 7.81824H27.6203V5.38424H29.3363C29.5401 5.35284 29.748 5.36195 29.9483 5.41102C30.1485 5.4601 30.3371 5.54818 30.5033 5.67024C30.7315 6.06275 30.8203 6.52088 30.7553 6.97024L30.7633 7.81524H32.3783V6.50524C32.4302 6.07764 32.3365 5.64503 32.1123 5.27724C31.9024 5.02248 31.6288 4.82788 31.3193 4.71324C31.6645 4.56264 31.9567 4.31214 32.1583 3.99401C32.3598 3.67588 32.4615 3.30468 32.4503 2.92824C32.4718 2.62925 32.4069 2.33038 32.2633 2.06727C32.1196 1.80415 31.9034 1.58788 31.6403 1.44424C31.034 1.16788 30.3652 1.05745 29.7023 1.12424H26.0203V7.81824ZM19.5653 7.81824H24.9123V6.43524H21.1663V5.09724H24.8243V3.72524H21.1663V2.51824H24.9123V1.11824H19.5663L19.5653 7.81824ZM16.7313 7.81824H18.3723V1.11824H15.7023L13.7813 5.66624L11.6863 1.11824H9.07228V7.46524L6.34828 1.11824H3.97228L1.10228 7.81824H2.84228L3.46428 6.32424H6.80228L7.41428 7.81824H10.6723V2.57024L13.0023 7.81824H14.4023L16.7233 2.57224L16.7313 7.81824ZM38.6643 3.74724C38.5669 3.97632 38.5235 4.2247 38.5373 4.47324C38.5178 4.7396 38.5613 5.00682 38.6643 5.25324C38.7676 5.27661 38.8734 5.28735 38.9793 5.28524L39.6743 3.66424H39.1253C38.7493 3.66424 38.7103 3.70224 38.6643 3.74724ZM42.0263 4.93124L43.1263 2.26224L44.2373 4.93124H42.0263ZM4.03828 4.93124L5.12528 2.26224L6.22528 4.93124H4.03828ZM27.6223 4.00624V2.51824H29.5943C29.8533 2.49853 30.1133 2.53997 30.3533 2.63924C30.4616 2.69356 30.5514 2.77882 30.6112 2.88421C30.671 2.9896 30.6982 3.11038 30.6893 3.23124C30.698 3.35733 30.6718 3.48339 30.6136 3.59559C30.5554 3.70778 30.4674 3.80177 30.3593 3.86724C30.1129 3.98368 29.8395 4.03103 29.5683 4.00424L27.6223 4.00624Z" fill="#727174"/>
</svg>
