<svg width="12" height="11" viewBox="0 0 12 11" fill="none" xmlns="http://www.w3.org/2000/svg">
<path d="M4.82551 0.56411C4.9074 0.395039 5.03525 0.252452 5.19442 0.152684C5.3536 0.0529152 5.53765 0 5.72551 0C5.91337 0 6.09743 0.0529152 6.2566 0.152684C6.41577 0.252452 6.54363 0.395039 6.62551 0.56411L7.58751 2.56411C7.66014 2.71508 7.76953 2.84539 7.90565 2.94306C8.04176 3.04074 8.20023 3.10265 8.36651 3.12311L10.5665 3.39311C10.7562 3.41633 10.9354 3.49343 11.0826 3.6153C11.2299 3.73717 11.3391 3.89869 11.3974 4.08073C11.4557 4.26277 11.4606 4.45771 11.4115 4.64245C11.3625 4.82719 11.2615 4.994 11.1205 5.12311L9.53751 6.57611C9.41106 6.69189 9.3165 6.83824 9.26291 7.0011C9.20933 7.16396 9.19851 7.33786 9.23151 7.50611L9.64551 9.61711C9.68217 9.80305 9.66523 9.99559 9.59667 10.1723C9.52811 10.349 9.41075 10.5025 9.25827 10.6151C9.10579 10.7276 8.92447 10.7945 8.73542 10.808C8.54638 10.8215 8.3574 10.7809 8.19051 10.6911L6.19951 9.62111C6.05395 9.54286 5.89127 9.5019 5.72601 9.5019C5.56075 9.5019 5.39807 9.54286 5.25251 9.62111L3.26051 10.6911C3.09362 10.7809 2.90464 10.8215 2.7156 10.808C2.52656 10.7945 2.34523 10.7276 2.19275 10.6151C2.04027 10.5025 1.92291 10.349 1.85435 10.1723C1.78579 9.99559 1.76886 9.80305 1.80551 9.61711L2.21951 7.50611C2.25251 7.33786 2.2417 7.16396 2.18811 7.0011C2.13452 6.83824 2.03996 6.69189 1.91351 6.57611L0.325511 5.12211C0.184246 4.99305 0.0829729 4.82617 0.0337104 4.64128C-0.0155521 4.45639 -0.0107356 4.26125 0.0475886 4.07901C0.105913 3.89677 0.215296 3.73509 0.362756 3.61316C0.510216 3.49123 0.689563 3.41416 0.879511 3.39111L3.07951 3.12111C3.24579 3.10065 3.40426 3.03874 3.54038 2.94106C3.67649 2.84339 3.78588 2.71308 3.85851 2.56211L4.82551 0.56411Z" fill="#F5B423"/>
</svg>
