<svg width="18" height="14" viewBox="0 0 18 14" fill="none" xmlns="http://www.w3.org/2000/svg">
<path d="M0.100098 7.43604C0.0340938 7.29999 0 7.15072 0 6.99951C0 6.8483 0.0340938 6.69903 0.100098 6.56299C0.231098 6.29499 3.348 0 9 0C14.652 0 17.7714 6.29999 17.9004 6.56299C17.9664 6.69903 18.0005 6.8483 18.0005 6.99951C18.0005 7.15072 17.9664 7.29999 17.9004 7.43604C17.7694 7.70504 14.651 14 9 14C3.349 14 0.232098 7.70004 0.100098 7.43604ZM2.13818 6.99902C2.88618 8.28902 5.352 11.999 9 11.999C12.664 11.999 15.1193 8.29102 15.8643 6.99902C15.1163 5.70902 12.65 1.99902 9 1.99902C5.35 1.99902 2.88318 5.70602 2.13818 6.99902ZM6.33838 6.99902C6.33838 6.20337 6.65419 5.44005 7.2168 4.87744C7.77941 4.31483 8.54273 3.99902 9.33838 3.99902C10.134 3.99902 10.8969 4.31483 11.4595 4.87744C12.0221 5.44005 12.3384 6.20337 12.3384 6.99902C12.3384 7.79467 12.0221 8.55751 11.4595 9.12012C10.8969 9.68273 10.134 9.99902 9.33838 9.99902C8.5436 9.99796 7.78144 9.68142 7.21973 9.11914C6.65801 8.55686 6.34255 7.79478 6.34229 7L6.33838 6.99902ZM8.33838 6.99902C8.33838 7.26424 8.44332 7.51852 8.63086 7.70605C8.8184 7.89359 9.07316 7.99902 9.33838 7.99902C9.6036 7.99902 9.85787 7.89359 10.0454 7.70605C10.2329 7.51852 10.3384 7.26424 10.3384 6.99902C10.3384 6.73381 10.2329 6.47953 10.0454 6.29199C9.85787 6.10446 9.6036 5.99902 9.33838 5.99902C9.07368 6.00008 8.82 6.10582 8.6333 6.29346C8.4466 6.48109 8.34202 6.7353 8.34229 7L8.33838 6.99902Z" fill="#727174"/>
</svg>
