<svg width="33" height="28" viewBox="0 0 33 28" fill="none" xmlns="http://www.w3.org/2000/svg">
<path d="M6.985 25.775C6.97578 25.9356 7.0146 26.0954 7.09651 26.2338C7.17843 26.3723 7.29972 26.4833 7.44494 26.5525C7.59015 26.6218 7.75271 26.6462 7.91187 26.6228C8.07104 26.5993 8.21961 26.5289 8.33864 26.4207C8.45767 26.3124 8.54177 26.1712 8.58021 26.015C8.61865 25.8587 8.60969 25.6946 8.55449 25.5435C8.49928 25.3924 8.40031 25.2611 8.27021 25.1664C8.14012 25.0718 7.98478 25.018 7.824 25.012C7.71875 25.0068 7.61351 25.0224 7.51431 25.0579C7.4151 25.0935 7.32391 25.1483 7.24594 25.2192C7.16798 25.2901 7.1048 25.3757 7.06002 25.471C7.01524 25.5664 6.98974 25.6697 6.985 25.775ZM9.151 24.437V27.112H8.569V26.787C8.46973 26.9151 8.3412 27.0176 8.19418 27.0858C8.04715 27.154 7.88592 27.1859 7.724 27.179C7.36433 27.1598 7.02573 27.0034 6.77792 26.742C6.53012 26.4806 6.39199 26.1342 6.39199 25.774C6.39199 25.4138 6.53012 25.0674 6.77792 24.806C7.02573 24.5446 7.36433 24.3882 7.724 24.369C7.88592 24.3621 8.04715 24.394 8.19418 24.4622C8.3412 24.5304 8.46973 24.6329 8.569 24.761V24.436L9.151 24.437ZM28.807 25.775C28.7978 25.9356 28.8366 26.0954 28.9185 26.2338C29.0004 26.3723 29.1217 26.4833 29.2669 26.5525C29.4122 26.6218 29.5747 26.6462 29.7339 26.6228C29.893 26.5993 30.0416 26.5289 30.1606 26.4207C30.2797 26.3124 30.3638 26.1712 30.4022 26.015C30.4406 25.8587 30.4317 25.6946 30.3765 25.5435C30.3213 25.3924 30.2223 25.2611 30.0922 25.1664C29.9621 25.0718 29.8068 25.018 29.646 25.012C29.5408 25.0068 29.4355 25.0224 29.3363 25.0579C29.2371 25.0935 29.1459 25.1483 29.0679 25.2192C28.99 25.2901 28.9268 25.3757 28.882 25.471C28.8372 25.5664 28.8117 25.6697 28.807 25.775ZM30.973 23.362V27.111H30.39V26.786C30.2907 26.9141 30.1622 27.0166 30.0152 27.0848C29.8682 27.153 29.7069 27.1849 29.545 27.178C29.1853 27.1588 28.8467 27.0024 28.5989 26.741C28.3511 26.4796 28.213 26.1332 28.213 25.773C28.213 25.4128 28.3511 25.0664 28.5989 24.805C28.8467 24.5436 29.1853 24.3872 29.545 24.368C29.7069 24.3611 29.8682 24.393 30.0152 24.4612C30.1622 24.5294 30.2907 24.6319 30.39 24.76V23.36L30.973 23.362ZM16.373 24.89C16.1932 24.884 16.0182 24.9485 15.8854 25.0697C15.7525 25.191 15.6723 25.3594 15.662 25.539H17.05C17.0458 25.3631 16.9719 25.196 16.8446 25.0745C16.7173 24.953 16.5469 24.887 16.371 24.891L16.373 24.89ZM16.384 24.368C16.5617 24.3691 16.7373 24.407 16.8995 24.4795C17.0618 24.552 17.2072 24.6573 17.3266 24.789C17.446 24.9206 17.5368 25.0756 17.5931 25.2441C17.6495 25.4126 17.6702 25.591 17.654 25.768C17.654 25.846 17.648 25.919 17.642 25.992H15.654C15.6762 26.1837 15.7721 26.3592 15.9214 26.4815C16.0707 26.6037 16.2617 26.6631 16.454 26.647C16.7372 26.6425 17.0109 26.544 17.232 26.367L17.517 26.798C17.209 27.0542 16.8173 27.1878 16.417 27.173C16.0527 27.1653 15.7057 27.0164 15.449 26.7579C15.1923 26.4993 15.046 26.1512 15.0409 25.7868C15.0359 25.4225 15.1724 25.0704 15.4219 24.8048C15.6713 24.5392 16.0141 24.3808 16.378 24.363L16.384 24.368ZM23.408 25.768C23.3988 25.9286 23.4376 26.0884 23.5195 26.2268C23.6014 26.3653 23.7227 26.4763 23.8679 26.5455C24.0132 26.6148 24.1757 26.6392 24.3349 26.6158C24.494 26.5923 24.6426 26.5219 24.7616 26.4137C24.8807 26.3054 24.9648 26.1642 25.0032 26.008C25.0417 25.8517 25.0327 25.6876 24.9775 25.5365C24.9223 25.3854 24.8233 25.2541 24.6932 25.1594C24.5631 25.0648 24.4078 25.011 24.247 25.005C24.1418 24.9998 24.0365 25.0154 23.9373 25.0509C23.8381 25.0865 23.7469 25.1413 23.6689 25.2122C23.591 25.2831 23.5278 25.3687 23.483 25.464C23.4382 25.5594 23.4127 25.6627 23.408 25.768ZM25.574 24.43V27.111H24.99V26.786C24.8907 26.9141 24.7621 27.0165 24.6151 27.0847C24.4681 27.1529 24.3069 27.1849 24.145 27.178C23.7853 27.1588 23.4467 27.0024 23.1989 26.741C22.9511 26.4796 22.813 26.1332 22.813 25.773C22.813 25.4128 22.9511 25.0664 23.1989 24.805C23.4467 24.5436 23.7853 24.3872 24.145 24.368C24.3069 24.3611 24.4681 24.3931 24.6151 24.4613C24.7621 24.5295 24.8907 24.6319 24.99 24.76V24.435L25.574 24.43ZM20.123 25.768C20.1159 25.5799 20.1481 25.3924 20.2177 25.2175C20.2872 25.0427 20.3925 24.8842 20.5269 24.7524C20.6612 24.6206 20.8217 24.5183 20.9978 24.4521C21.174 24.3859 21.3621 24.3573 21.55 24.368C21.8993 24.3505 22.2424 24.4643 22.512 24.687L22.233 25.157C22.0317 25.0034 21.7862 24.9189 21.533 24.916C21.3146 24.9289 21.1094 25.0248 20.9593 25.184C20.8093 25.3432 20.7257 25.5537 20.7257 25.7725C20.7257 25.9913 20.8093 26.2018 20.9593 26.361C21.1094 26.5202 21.3146 26.6161 21.533 26.629C21.7862 26.6262 22.0317 26.5417 22.233 26.388L22.512 26.858C22.2424 27.0807 21.8993 27.1945 21.55 27.177C21.3621 27.1877 21.174 27.1591 20.9978 27.0929C20.8217 27.0267 20.6612 26.9244 20.5269 26.7926C20.3925 26.6608 20.2872 26.5023 20.2177 26.3275C20.1481 26.1526 20.1159 25.9651 20.123 25.777V25.768ZM27.623 24.368C27.7642 24.3686 27.9042 24.3933 28.037 24.441L27.858 24.989C27.7423 24.9429 27.6186 24.9201 27.494 24.922C27.114 24.922 26.923 25.168 26.923 25.611V27.111H26.34V24.436H26.916V24.761C26.9873 24.6387 27.0902 24.5377 27.2138 24.4688C27.3375 24.3998 27.4774 24.3653 27.619 24.369L27.623 24.368ZM12.031 24.65L11.778 25.12C11.524 24.9741 11.2369 24.8953 10.944 24.891C10.625 24.891 10.435 25.009 10.435 25.204C10.435 25.383 10.635 25.434 10.889 25.467L11.163 25.507C11.745 25.591 12.098 25.837 12.098 26.307C12.098 26.816 11.65 27.18 10.878 27.18C10.4651 27.1912 10.0596 27.0695 9.721 26.833L9.995 26.38C10.2518 26.5706 10.5653 26.6693 10.885 26.66C11.285 26.66 11.495 26.542 11.495 26.335C11.495 26.184 11.344 26.1 11.025 26.055L10.75 26.016C10.15 25.932 9.827 25.663 9.827 25.227C9.827 24.695 10.263 24.371 10.941 24.371C11.3223 24.3588 11.6991 24.456 12.027 24.651L12.031 24.65ZM19.536 24.37C19.6775 24.3705 19.8178 24.3952 19.951 24.443L19.772 24.991C19.6563 24.9449 19.5326 24.9221 19.408 24.924C19.028 24.924 18.837 25.17 18.837 25.613V27.113H18.255V24.438H18.832V24.763C18.9028 24.6406 19.0053 24.5396 19.1286 24.4704C19.252 24.4013 19.3916 24.3666 19.533 24.37H19.536ZM14.572 24.437V24.969H13.621V26.178C13.621 26.446 13.716 26.626 14.007 26.626C14.1887 26.6199 14.3658 26.568 14.522 26.475L14.69 26.975C14.4717 27.1112 14.2193 27.183 13.962 27.182C13.274 27.182 13.033 26.812 13.033 26.192V24.972H12.49V24.44H13.032V23.628H13.62V24.44L14.572 24.437ZM5.872 27.112H5.283V25.623C5.283 25.169 5.093 24.918 4.696 24.918C4.60396 24.9137 4.51211 24.9297 4.42689 24.9647C4.34167 24.9998 4.26516 25.053 4.20274 25.1208C4.14031 25.1886 4.09348 25.2692 4.06554 25.357C4.0376 25.4448 4.02922 25.5376 4.041 25.629V27.112H3.453V25.623C3.453 25.169 3.253 24.918 2.871 24.918C2.77873 24.9128 2.68645 24.9282 2.60081 24.9629C2.51517 24.9976 2.43828 25.0509 2.37566 25.1189C2.31304 25.1869 2.26625 25.2678 2.23865 25.356C2.21104 25.4442 2.20331 25.5375 2.216 25.629V27.112H1.629V24.437H2.211V24.767C2.29535 24.6379 2.41197 24.533 2.54931 24.4629C2.68665 24.3927 2.83995 24.3597 2.994 24.367C3.17054 24.3595 3.34585 24.3997 3.50143 24.4835C3.65701 24.5673 3.78711 24.6915 3.878 24.843C3.97779 24.6868 4.11764 24.5603 4.28297 24.4766C4.4483 24.3929 4.63307 24.355 4.818 24.367C4.9591 24.3594 5.10022 24.3817 5.23206 24.4326C5.3639 24.4834 5.48346 24.5617 5.58286 24.6621C5.68226 24.7626 5.75924 24.8829 5.80873 25.0153C5.85823 25.1476 5.87911 25.289 5.87 25.43L5.872 27.112ZM17.115 1.834C17.038 1.77 17.008 1.722 17.015 1.68C18.5436 0.670083 20.3173 0.0930998 22.1475 0.0103516C23.9778 -0.0723966 25.7962 0.342181 27.4098 1.21004C29.0233 2.0779 30.3716 3.36662 31.3115 4.9393C32.2513 6.51199 32.7476 8.30989 32.7476 10.142C32.7476 11.9741 32.2513 13.772 31.3115 15.3447C30.3716 16.9174 29.0233 18.2061 27.4098 19.074C25.7962 19.9418 23.9778 20.3564 22.1475 20.2737C20.3173 20.1909 18.5436 19.6139 17.015 18.604C17.0352 18.5642 17.0647 18.5299 17.101 18.504C17.4956 18.1804 17.8634 17.8256 18.201 17.443C19.1015 16.4288 19.8085 15.2581 20.287 13.989C20.6061 13.1523 20.8184 12.2788 20.919 11.389C21.1346 9.42367 20.8186 7.43649 20.004 5.635C19.3412 4.16559 18.3534 2.8659 17.115 1.834ZM12.482 10.128C12.4812 8.5921 12.8286 7.07601 13.498 5.69368C14.1675 4.31135 15.1415 3.09874 16.347 2.147C16.377 2.1468 16.4068 2.15252 16.4346 2.16385C16.4624 2.17517 16.4877 2.19188 16.509 2.213C17.6687 3.15645 18.608 4.34217 19.261 5.687C19.6788 6.54465 19.9708 7.45804 20.128 8.399C20.2388 9.02844 20.2901 9.66694 20.281 10.306C20.2546 11.7955 19.9042 13.2613 19.2542 14.6017C18.6042 15.9421 17.6702 17.1249 16.517 18.068C16.4799 18.1035 16.434 18.1283 16.384 18.14C15.1677 17.1887 14.1841 15.9728 13.508 14.5845C12.8319 13.1962 12.481 11.6722 12.482 10.128ZM0.0270004 9.392C0.16098 7.62682 0.753845 5.92729 1.74686 4.46177C2.73987 2.99626 4.09856 1.81563 5.68832 1.03687C7.27808 0.258105 9.04373 -0.0917669 10.8103 0.0219178C12.5769 0.135602 14.2832 0.708896 15.76 1.685C15.766 1.727 15.726 1.767 15.66 1.818C15.478 1.968 15.299 2.124 15.131 2.29C13.0681 4.29028 11.8688 7.01767 11.789 9.89C11.7685 10.7381 11.8484 11.5857 12.027 12.415C12.1933 13.2047 12.4462 13.9737 12.781 14.708C13.4508 16.1793 14.4417 17.4819 15.681 18.52C15.7102 18.542 15.7344 18.5699 15.752 18.602C14.2221 19.611 12.4478 20.1873 10.617 20.2699C8.78625 20.3525 6.96722 19.9384 5.35266 19.0714C3.73811 18.2043 2.38815 16.9167 1.44583 15.3449C0.503514 13.7731 0.00392626 11.9756 0 10.143C0 9.911 0.00900017 9.68 0.0240002 9.452C0.0270002 9.43 0.0270004 9.411 0.0270004 9.392Z" fill="#727174"/>
</svg>
