<svg width="60" height="17" viewBox="0 0 60 17" fill="none" xmlns="http://www.w3.org/2000/svg">
<path fill-rule="evenodd" clip-rule="evenodd" d="M46.361 2.918C48.499 2.818 50.832 3.696 50.346 6.318L48.985 12.637H45.875L46.069 11.568C44.417 13.317 40.14 13.22 40.821 9.333C41.307 7 43.64 6.32 47.139 6.32C47.333 5.251 46.653 5.056 45.487 5.056C44.4588 5.15954 43.447 5.38789 42.474 5.736L42.766 3.501C43.9388 3.17312 45.1447 2.97757 46.361 2.918ZM46.555 9.43C46.555 9.138 46.655 8.75 46.749 8.847H45.971C45.291 8.847 44.416 8.847 44.027 9.43C43.638 10.208 44.221 10.596 44.902 10.596C45.68 10.499 46.361 10.208 46.555 9.43ZM52.97 0.0019989H56.177L53.553 12.637H50.443L52.97 0.0019989ZM38.488 0.0019989C40.14 0.0019989 42.181 2.14 41.695 4.959C41.4949 6.06016 40.9018 7.05121 40.0259 7.74794C39.15 8.44467 38.051 8.79969 36.933 8.747H34.5L33.625 12.635H30.225L32.752 0L38.488 0.0019989ZM38.388 4.376C38.4501 4.19984 38.4663 4.01078 38.435 3.82663C38.4038 3.64248 38.3262 3.46931 38.2096 3.32345C38.0929 3.17758 37.9411 3.06382 37.7683 2.99288C37.5955 2.92195 37.4075 2.89618 37.222 2.918H35.572L34.892 5.834H36.447C36.8868 5.84086 37.3164 5.70136 37.6683 5.43744C38.0202 5.17352 38.2744 4.80014 38.391 4.376H38.388ZM16.037 2.918C18.175 2.818 20.605 3.696 20.119 6.318L18.758 12.637H15.648L15.842 11.568C14.19 13.317 10.01 13.22 10.691 9.333C11.177 7 13.51 6.32 16.911 6.32C17.105 5.251 16.425 5.056 15.259 5.056C14.2289 5.14761 13.2156 5.3763 12.246 5.736L12.538 3.501C13.676 3.16366 14.8511 2.96785 16.037 2.918ZM16.329 9.43C16.329 9.138 16.429 8.75 16.523 8.847H15.745C15.162 8.847 14.287 8.847 13.898 9.43C13.412 10.208 13.998 10.596 14.676 10.596C15.454 10.499 16.134 10.208 16.328 9.43H16.329ZM21.383 2.918H24.493L24.979 8.361L28.089 2.918H31.3L23.909 16.525H20.409L22.646 12.447L21.383 2.918ZM8.359 0.0019989C10.011 0.0019989 12.052 2.14 11.469 4.959C11.2689 6.06034 10.6756 7.05152 9.79951 7.74828C8.92342 8.44503 7.82412 8.79994 6.706 8.747H4.276L3.4 12.637H0L2.527 0.0019989H8.359ZM8.259 4.376C8.32069 4.20045 8.33684 4.01212 8.30594 3.82862C8.27504 3.64513 8.19809 3.47247 8.0823 3.32681C7.96651 3.18114 7.81566 3.06723 7.64386 2.99574C7.47207 2.92424 7.28495 2.89749 7.1 2.918H5.443L4.763 5.834H6.318C6.75764 5.84063 7.18704 5.70104 7.53873 5.43713C7.89042 5.17323 8.14448 4.79997 8.261 4.376H8.259ZM56.859 2.043V0.682999H56.373V0.488998H57.637V0.682999H57.151V2.047L56.859 2.043ZM57.831 2.043V0.487999H58.123L58.512 1.557C58.523 1.63092 58.5582 1.69912 58.612 1.751C58.612 1.651 58.612 1.651 58.712 1.459L59.101 0.389999H59.393V1.947H59.19V0.585999L58.7 1.947H58.408L57.922 0.585999V1.947H57.822L57.831 2.043Z" fill="#727174"/>
</svg>
