<svg width="18" height="17" viewBox="0 0 18 17" fill="none" xmlns="http://www.w3.org/2000/svg">
<path d="M15.325 16.7022L11.225 12.6022C9.81021 13.6688 8.04395 14.1598 6.28173 13.9764C4.51951 13.793 2.89219 12.9488 1.72734 11.6139C0.562483 10.2789 -0.0534098 8.55221 0.00363644 6.78139C0.0606827 5.01058 0.786432 3.32712 2.03479 2.06988C3.28315 0.812651 4.96143 0.0749971 6.7318 0.00541122C8.50216 -0.0641747 10.2332 0.539474 11.5764 1.69484C12.9195 2.85021 13.7752 4.47152 13.9711 6.23239C14.1669 7.99326 13.6885 9.76296 12.632 11.1852L16.732 15.2852C16.8275 15.3775 16.9037 15.4878 16.9561 15.6098C17.0085 15.7318 17.0361 15.8631 17.0372 15.9958C17.0384 16.1286 17.0131 16.2603 16.9628 16.3832C16.9125 16.5061 16.8383 16.6177 16.7444 16.7116C16.6505 16.8055 16.5388 16.8798 16.4159 16.9301C16.293 16.9804 16.1614 17.0057 16.0286 17.0045C15.8958 17.0033 15.7646 16.9758 15.6426 16.9233C15.5206 16.8709 15.4102 16.7948 15.318 16.6992L15.325 16.7022ZM2.03198 6.99525C2.03198 7.98415 2.32522 8.95085 2.87463 9.7731C3.42404 10.5953 4.20493 11.2362 5.11856 11.6146C6.03219 11.9931 7.03752 12.0921 8.00743 11.8992C8.97733 11.7062 9.86825 11.23 10.5675 10.5308C11.2668 9.83152 11.743 8.9406 11.9359 7.9707C12.1288 7.00079 12.0298 5.99546 11.6514 5.08183C11.2729 4.1682 10.6321 3.38731 9.80983 2.8379C8.98758 2.28849 8.02088 1.99525 7.03198 1.99525C5.7063 1.99657 4.4353 2.52378 3.49791 3.46118C2.56051 4.39857 2.0333 5.66957 2.03198 6.99525Z" fill="#504E4A"/>
</svg>
