<svg width="1700" height="192" viewBox="0 0 1700 192" fill="none" xmlns="http://www.w3.org/2000/svg">
<g opacity="0.15">
<path d="M1699.5 52.8097C1699.46 52.8098 1699.42 52.8051 1699.38 52.7957L1557.8 18.0877C1464.86 -4.69592 1367.8 -4.69592 1274.87 18.0877C1228.49 29.4508 1180.91 35.1973 1133.17 35.2037C1085.42 35.1973 1037.84 29.4507 991.465 18.0877C898.531 -4.69588 801.469 -4.69588 708.535 18.0877C662.159 29.4508 614.584 35.1973 566.835 35.2037C519.087 35.1973 471.512 29.4508 425.135 18.0877C332.201 -4.69592 235.139 -4.69592 142.205 18.0877L0.613353 52.7957C0.485167 52.8258 0.350255 52.8042 0.237915 52.7355C0.125576 52.6668 0.0448801 52.5565 0.013353 52.4287C-0.0168467 52.3006 0.004638 52.1658 0.0731498 52.0535C0.141662 51.9412 0.251679 51.8604 0.379353 51.8287L141.962 17.1207C235.051 -5.70018 332.274 -5.70018 425.362 17.1207C471.663 28.4636 519.159 34.1991 566.828 34.2037C614.498 34.1975 661.995 28.4603 708.295 17.1157C801.384 -5.70523 898.607 -5.70523 991.695 17.1157C1038 28.4601 1085.49 34.1973 1133.16 34.2037C1180.83 34.1973 1228.32 28.4601 1274.62 17.1157C1367.71 -5.70519 1464.94 -5.70519 1558.02 17.1157L1699.61 51.8237C1699.73 51.8525 1699.83 51.9238 1699.9 52.0244C1699.97 52.1249 1700 52.2476 1699.99 52.3691C1699.97 52.4906 1699.91 52.6026 1699.82 52.6838C1699.73 52.765 1699.61 52.8098 1699.49 52.8097H1699.5Z" fill="white"/>
<path d="M1699.5 78.7147C1699.46 78.7148 1699.42 78.7101 1699.38 78.7007L1557.8 43.9927C1464.86 21.2091 1367.8 21.2091 1274.87 43.9927C1228.49 55.3558 1180.91 61.1023 1133.17 61.1087C1085.42 61.1023 1037.84 55.3557 991.465 43.9927C898.531 21.2091 801.469 21.2091 708.535 43.9927C662.159 55.3558 614.584 61.1023 566.835 61.1087C519.087 61.1023 471.512 55.3558 425.135 43.9927C332.201 21.2091 235.139 21.2091 142.205 43.9927L0.613353 78.7007C0.485167 78.7309 0.350255 78.7092 0.237915 78.6405C0.125576 78.5718 0.0448801 78.4615 0.013353 78.3337C-0.0168467 78.2056 0.004638 78.0709 0.0731498 77.9585C0.141662 77.8462 0.251679 77.7654 0.379353 77.7337L141.962 43.0257C235.051 20.2045 332.274 20.2045 425.362 43.0257C471.662 54.3697 519.158 60.1066 566.827 60.1127C614.498 60.1051 661.995 54.3666 708.295 43.0207C801.384 20.1995 898.607 20.1995 991.695 43.0207C1038 54.3647 1085.49 60.1015 1133.16 60.1077C1180.83 60.1015 1228.32 54.3647 1274.62 43.0207C1367.71 20.1995 1464.94 20.1995 1558.02 43.0207L1699.61 77.7287C1699.73 77.7574 1699.83 77.8289 1699.9 77.9294C1699.97 78.0299 1700 78.1525 1699.99 78.2741C1699.97 78.3956 1699.91 78.5076 1699.82 78.5888C1699.73 78.67 1699.61 78.7148 1699.49 78.7147H1699.5Z" fill="white"/>
<path d="M1699.5 108.487C1699.46 108.487 1699.42 108.482 1699.38 108.473L1557.8 73.7637C1464.86 50.9801 1367.8 50.9801 1274.87 73.7637C1228.49 85.1268 1180.91 90.8733 1133.17 90.8797C1085.42 90.8733 1037.84 85.1268 991.465 73.7637C898.531 50.9801 801.469 50.9801 708.535 73.7637C662.159 85.1268 614.584 90.8733 566.835 90.8797C519.087 90.8733 471.512 85.1268 425.135 73.7637C332.201 50.9801 235.139 50.9801 142.205 73.7637L0.613353 108.473C0.485167 108.503 0.350255 108.481 0.237915 108.413C0.125576 108.344 0.0448801 108.234 0.013353 108.106C-0.0168467 107.978 0.004638 107.843 0.0731498 107.731C0.141662 107.618 0.251679 107.537 0.379353 107.506L141.962 72.7967C235.051 49.9758 332.274 49.9758 425.362 72.7967C471.663 84.1396 519.159 89.8751 566.828 89.8797C614.498 89.8735 661.995 84.1364 708.295 72.7917C801.384 49.9708 898.607 49.9708 991.695 72.7917C1038 84.1362 1085.49 89.8733 1133.16 89.8797C1180.83 89.8733 1228.32 84.1361 1274.62 72.7917C1367.71 49.9708 1464.94 49.9708 1558.02 72.7917L1699.61 107.501C1699.73 107.529 1699.83 107.601 1699.9 107.701C1699.97 107.802 1700 107.925 1699.99 108.046C1699.97 108.168 1699.91 108.28 1699.82 108.361C1699.73 108.442 1699.61 108.487 1699.49 108.487H1699.5Z" fill="white"/>
<path d="M1699.5 136.324C1699.46 136.324 1699.42 136.319 1699.38 136.31L1557.8 101.601C1464.86 78.8171 1367.8 78.8171 1274.87 101.601C1228.49 112.964 1180.91 118.71 1133.17 118.717C1085.42 118.71 1037.84 112.964 991.465 101.601C898.531 78.8171 801.469 78.8171 708.535 101.601C662.159 112.964 614.584 118.71 566.835 118.717C519.087 118.71 471.512 112.964 425.135 101.601C332.201 78.8171 235.139 78.8171 142.205 101.601L0.613353 136.31C0.485167 136.34 0.350255 136.318 0.237915 136.25C0.125576 136.181 0.0448801 136.071 0.013353 135.943C-0.0168467 135.815 0.004638 135.68 0.0731498 135.568C0.141662 135.455 0.251679 135.374 0.379353 135.343L141.962 100.634C235.051 77.8128 332.274 77.8128 425.362 100.634C471.662 111.978 519.158 117.715 566.827 117.722C614.498 117.714 661.995 111.975 708.295 100.629C801.384 77.8078 898.607 77.8078 991.695 100.629C1038 111.973 1085.49 117.71 1133.16 117.717C1180.83 117.71 1228.32 111.973 1274.62 100.629C1367.71 77.8078 1464.94 77.8078 1558.02 100.629L1699.61 135.342C1699.73 135.37 1699.84 135.442 1699.91 135.542C1699.98 135.643 1700.01 135.766 1699.99 135.887C1699.98 136.009 1699.92 136.121 1699.83 136.202C1699.74 136.283 1699.62 136.328 1699.5 136.328L1699.5 136.324Z" fill="white"/>
<path d="M1699.5 166.098C1699.46 166.098 1699.42 166.093 1699.38 166.084L1557.8 131.373C1464.86 108.589 1367.8 108.589 1274.87 131.373C1228.49 142.736 1180.91 148.482 1133.17 148.489C1085.42 148.482 1037.84 142.736 991.465 131.373C898.531 108.589 801.469 108.589 708.535 131.373C662.159 142.736 614.584 148.482 566.835 148.489C519.087 148.482 471.512 142.736 425.135 131.373C332.201 108.589 235.139 108.589 142.205 131.373L0.613353 166.081C0.485167 166.111 0.350255 166.089 0.237915 166.02C0.125576 165.952 0.0448801 165.841 0.013353 165.714C-0.0168467 165.586 0.004638 165.451 0.0731498 165.338C0.141662 165.226 0.251679 165.145 0.379353 165.114L141.959 130.398C235.048 107.577 332.271 107.577 425.359 130.398C471.66 141.743 519.158 147.481 566.828 147.488C614.499 147.481 661.995 141.743 708.295 130.398C801.384 107.577 898.607 107.577 991.695 130.398C1038 141.742 1085.49 147.478 1133.16 147.485C1180.83 147.479 1228.33 141.742 1274.63 130.398C1367.71 107.577 1464.94 107.577 1558.03 130.398L1699.61 165.106C1699.73 165.134 1699.83 165.206 1699.9 165.306C1699.97 165.407 1700 165.53 1699.99 165.651C1699.97 165.773 1699.92 165.885 1699.82 165.966C1699.73 166.047 1699.61 166.092 1699.49 166.092L1699.5 166.098Z" fill="white"/>
<path d="M1699.5 192C1699.46 192 1699.42 191.995 1699.38 191.986L1557.8 157.278C1464.86 134.494 1367.8 134.494 1274.87 157.278C1228.49 168.641 1180.91 174.387 1133.17 174.394C1085.42 174.387 1037.84 168.641 991.465 157.278C898.531 134.494 801.469 134.494 708.535 157.278C662.159 168.641 614.584 174.387 566.835 174.394C519.087 174.387 471.512 168.641 425.135 157.278C332.201 134.494 235.139 134.494 142.205 157.278L0.613353 191.988C0.485167 192.018 0.350255 191.996 0.237915 191.928C0.125576 191.859 0.0448801 191.749 0.013353 191.621C-0.0168467 191.493 0.004638 191.358 0.0731498 191.246C0.141662 191.133 0.251679 191.052 0.379353 191.021L141.962 156.313C235.051 133.492 332.274 133.492 425.362 156.313C471.662 167.657 519.158 173.394 566.827 173.4C614.498 173.392 661.995 167.652 708.295 156.306C801.384 133.485 898.607 133.485 991.695 156.306C1038 167.65 1085.49 173.387 1133.16 173.393C1180.83 173.387 1228.32 167.65 1274.62 156.306C1367.71 133.485 1464.94 133.485 1558.02 156.306L1699.61 191.014C1699.73 191.042 1699.83 191.114 1699.9 191.214C1699.97 191.315 1700 191.438 1699.99 191.559C1699.97 191.681 1699.91 191.793 1699.82 191.874C1699.73 191.955 1699.61 192 1699.49 192H1699.5Z" fill="white"/>
</g>
</svg>
