<svg width="47" height="16" viewBox="0 0 47 16" fill="none" xmlns="http://www.w3.org/2000/svg">
<path fill-rule="evenodd" clip-rule="evenodd" d="M41.8988 9.69888H41.0578C41.0225 9.69632 40.9871 9.69936 40.9528 9.70788C40.944 9.71076 40.9363 9.71636 40.9308 9.72388C40.9157 9.71244 40.8984 9.70422 40.88 9.69975C40.8616 9.69528 40.8425 9.69464 40.8238 9.69788H39.8458C39.8274 9.6947 39.8085 9.69527 39.7903 9.69957C39.772 9.70387 39.7549 9.71179 39.7398 9.72288L39.7328 9.71288C39.7007 9.70185 39.6666 9.69776 39.6328 9.70088C39.5108 9.70088 39.3888 9.70088 39.2668 9.70088C39.1828 9.70088 39.1758 9.68788 39.2038 9.60988C39.2798 9.40388 39.3498 9.19588 39.4278 8.98988C39.4418 8.96025 39.4484 8.92763 39.4468 8.89488V8.88788C39.4788 8.87088 39.4848 8.83488 39.4958 8.80488C39.6208 8.45788 39.7478 8.11288 39.8728 7.76588C39.8828 7.73888 39.8978 7.71088 39.8728 7.68288C39.9078 7.68288 39.9118 7.64888 39.9198 7.62488C40.1318 7.03788 40.3508 6.45388 40.5508 5.86288C40.5623 5.83822 40.5671 5.81099 40.5648 5.78388C40.6018 5.77488 40.6028 5.73888 40.6138 5.71188C40.7828 5.25488 40.9468 4.79688 41.1138 4.33888C41.1202 4.32229 41.1236 4.30468 41.1238 4.28688C41.1298 4.30488 41.1328 4.32288 41.1368 4.34088C41.1539 4.45556 41.1817 4.56839 41.2198 4.67788V4.68488C41.2101 4.70893 41.2101 4.73583 41.2198 4.75988C41.2308 4.82488 41.2438 4.88888 41.2578 4.95288C41.5385 6.29888 41.8198 7.64488 42.1018 8.99088C42.1528 9.23288 42.1938 9.47688 42.2598 9.71688C42.2638 9.71659 42.2678 9.71659 42.2718 9.71688C42.2348 9.69935 42.1943 9.69026 42.1533 9.69026C42.1123 9.69026 42.0718 9.69935 42.0348 9.71688C42.0272 9.7097 42.0184 9.70394 42.0088 9.69988C41.974 9.69251 41.9383 9.68982 41.9028 9.69188M46.8568 14.8349C46.7218 14.1909 46.5888 13.5469 46.4568 12.9029C46.3568 12.4399 46.2568 11.9779 46.1638 11.5149C46.1641 11.5122 46.1641 11.5095 46.1638 11.5069L44.9168 5.52988C44.5541 3.79655 44.1928 2.06322 43.8328 0.329882C43.8198 0.269882 43.8018 0.250882 43.7388 0.250882H40.5778C40.5264 0.245294 40.4745 0.249708 40.4248 0.263882C40.1571 0.277929 39.8978 0.362071 39.6728 0.507882C39.6468 0.521882 39.6198 0.534882 39.5958 0.550882C39.2688 0.778809 39.0259 1.10811 38.9048 1.48788L38.1778 3.22288C38.1468 3.29488 38.1138 3.36588 38.0848 3.43788L37.7018 4.36588C37.6558 4.47288 37.6068 4.57788 37.5628 4.68588L37.0988 5.82088C37.0724 5.86131 37.0522 5.90547 37.0388 5.95188L36.4948 7.25788C36.4698 7.31488 36.4438 7.37088 36.4208 7.42788L36.0318 8.36788C35.9488 8.56188 35.8648 8.75488 35.7838 8.94988L35.2838 10.1499C35.2478 10.2319 35.2108 10.3129 35.1768 10.3949L34.6948 11.5559C34.4868 12.0319 34.2878 12.5119 34.0948 12.9939C34.089 12.9995 34.084 13.0059 34.0798 13.0129C33.8291 13.6129 33.5788 14.2129 33.3288 14.8129C33.3113 14.8398 33.3013 14.8708 33.2998 14.9029H37.0998C37.1188 14.9018 37.1378 14.9018 37.1568 14.9029C37.2408 14.9189 37.2778 14.8829 37.3048 14.8029C37.3928 14.5409 37.4918 14.2839 37.5858 14.0229C37.6858 13.7399 37.7858 13.4569 37.8858 13.1739C37.9338 13.0479 37.9858 12.9219 38.0278 12.7939C38.03 12.7815 38.0346 12.7697 38.0414 12.7592C38.0481 12.7487 38.0569 12.7396 38.0673 12.7325C38.0776 12.7254 38.0893 12.7205 38.1016 12.718C38.1138 12.7155 38.1265 12.7154 38.1388 12.7179C38.2828 12.7179 38.4268 12.7179 38.5708 12.7179C38.9468 12.7252 39.3228 12.7252 39.6988 12.7179C40.0855 12.7252 40.4721 12.7252 40.8588 12.7179C41.2588 12.7252 41.6561 12.7252 42.0508 12.7179C42.3088 12.7179 42.5678 12.7239 42.8268 12.7179C42.8958 12.7179 42.9188 12.7409 42.9318 12.8029C43.0728 13.4879 43.2168 14.1719 43.3568 14.8569C43.3648 14.8959 43.3808 14.9059 43.4158 14.9059H43.9628H45.9728H46.5448C46.6348 14.9059 46.7248 14.9059 46.8138 14.9059C46.8718 14.9059 46.8718 14.8879 46.8618 14.8399" fill="#727174"/>
<path fill-rule="evenodd" clip-rule="evenodd" d="M16.494 3.35596C16.571 3.17496 16.65 2.99396 16.726 2.81196C16.85 2.51196 16.971 2.21796 17.094 1.91996C17.1547 1.7964 17.2085 1.66953 17.255 1.53996C17.3004 1.45039 17.3389 1.35745 17.37 1.26196L17.794 0.268957H17.733H13.879C13.857 0.268957 13.83 0.256957 13.813 0.282957L13.679 0.625957C13.594 0.836957 13.507 1.04796 13.424 1.25896C13.306 1.55896 13.19 1.85896 13.073 2.15896C12.948 2.46996 12.822 2.78096 12.698 3.09196C12.587 3.37396 12.478 3.65696 12.368 3.93896C12.155 4.45396 11.952 4.97196 11.752 5.49296C11.706 5.60396 11.659 5.71496 11.615 5.82696L11.195 6.90296L10.607 8.38896C10.582 8.44896 10.556 8.50796 10.532 8.56896L10.019 9.87596L9.876 10.221C9.869 10.201 9.863 10.181 9.857 10.16C9.795 9.83196 9.735 9.50396 9.673 9.17596C9.621 8.90196 9.567 8.62796 9.513 8.35396C9.51399 8.33497 9.51399 8.31594 9.513 8.29696L9.288 7.13396C9.1 6.13396 8.912 5.13396 8.724 4.13396C8.572 3.32696 8.424 2.51896 8.265 1.71496C8.19342 1.306 7.97885 0.935787 7.65959 0.670378C7.34033 0.404969 6.93715 0.261636 6.522 0.265957H0.159C0.135 0.265957 0.104 0.250957 0.085 0.280957C0.058 0.402957 0.031 0.524957 0 0.645957C0 0.673957 0 0.693957 0.031 0.702957L0.648 0.840957C0.65449 0.845524 0.66155 0.849222 0.669 0.851957C1.162 0.973957 1.65 1.11396 2.131 1.27596L2.58 1.42696C3.04295 1.59719 3.49169 1.80384 3.922 2.04496C4.06263 2.14101 4.18803 2.25764 4.294 2.39096C4.44349 2.62071 4.54957 2.87593 4.607 3.14396C4.83433 4.01529 5.061 4.88729 5.287 5.75996L6.845 11.789C7.10833 12.8063 7.37067 13.8246 7.632 14.844C7.63293 14.8543 7.63601 14.8643 7.64106 14.8734C7.64611 14.8824 7.65301 14.8903 7.6613 14.8966C7.6696 14.9028 7.67912 14.9072 7.68923 14.9095C7.69934 14.9118 7.70982 14.912 7.72 14.91C7.954 14.91 8.188 14.91 8.42 14.91H9.605H10.748H11.61C11.636 14.91 11.655 14.91 11.666 14.877C11.713 14.756 11.766 14.636 11.811 14.517C11.878 14.361 11.947 14.205 12.011 14.049C12.146 13.726 12.278 13.403 12.411 13.08C12.419 13.067 12.426 13.053 12.433 13.038L12.999 11.676C13.011 11.651 13.024 11.628 13.034 11.604L13.588 10.271C13.678 10.062 13.768 9.85296 13.856 9.64296C13.975 9.35796 14.092 9.07196 14.21 8.78596C14.289 8.60196 14.37 8.41896 14.447 8.23396C14.576 7.92396 14.704 7.61296 14.832 7.30296C14.8579 7.26691 14.8744 7.22498 14.88 7.18096L14.945 7.03396C14.956 7.01296 14.967 6.99196 14.978 6.96896L15.567 5.54996C15.7 5.23596 15.835 4.92296 15.967 4.60796C16.141 4.19196 16.313 3.77596 16.486 3.35996" fill="#727174"/>
<path fill-rule="evenodd" clip-rule="evenodd" d="M23.2031 0.266179H19.8501C19.7241 0.266179 19.5991 0.266179 19.4751 0.266179C19.4531 0.266179 19.4161 0.249179 19.4151 0.296179L19.3661 0.525179C19.3661 0.541179 19.3551 0.556179 19.3521 0.572179C19.2415 1.08951 19.1311 1.60685 19.0211 2.12418C18.9651 2.38618 18.9121 2.64918 18.8581 2.91218C18.855 2.91679 18.8527 2.92185 18.8511 2.92718C18.7451 3.42318 18.6395 3.91951 18.5341 4.41618C18.4983 4.55395 18.4696 4.69347 18.4481 4.83418C18.4021 4.99718 18.3721 5.16318 18.3391 5.33418L18.0281 6.78918C17.9971 6.92918 17.9641 7.06918 17.9341 7.21018L17.6991 8.32518C17.6923 8.33973 17.6867 8.35477 17.6821 8.37018C17.5901 8.79951 17.4991 9.22918 17.4091 9.65918L17.1921 10.6942C17.1501 10.8822 17.1071 11.0692 17.0681 11.2582L16.7681 12.6712C16.7431 12.7852 16.7161 12.8992 16.6921 13.0122L16.2981 14.8502C16.2911 14.8842 16.2791 14.9132 16.3351 14.9132C16.7731 14.9132 17.2101 14.9132 17.6481 14.9132H18.8251H20.0191C20.0521 14.9132 20.0651 14.9052 20.0711 14.8712C20.0831 14.8082 20.1011 14.7472 20.1171 14.6842C20.1871 14.3642 20.2591 14.0442 20.3281 13.7232C20.3691 13.5332 20.4061 13.3422 20.4451 13.1512C20.4503 13.1395 20.4546 13.1275 20.4581 13.1152L20.7681 11.6432L20.8681 11.2022L20.9551 10.7822C20.9711 10.7192 20.9881 10.6572 21.0011 10.5932L21.2811 9.25918C21.2864 9.24996 21.2908 9.24025 21.2941 9.23018C21.4088 8.69685 21.5228 8.16351 21.6361 7.63018C21.6881 7.38418 21.7361 7.13718 21.7881 6.89018C21.7934 6.88063 21.7978 6.87058 21.8011 6.86018C21.9438 6.19951 22.0851 5.53885 22.2251 4.87818C22.2941 4.55118 22.3611 4.22418 22.4251 3.89818C22.4297 3.88853 22.4334 3.87849 22.4361 3.86818C22.6361 2.93085 22.8361 1.99351 23.0361 1.05618C23.0921 0.796179 23.1461 0.536179 23.2031 0.270179" fill="#727174"/>
<path fill-rule="evenodd" clip-rule="evenodd" d="M34.1142 0.624C34.0382 0.602 33.9652 0.572 33.8912 0.547C33.4957 0.411393 33.0919 0.301497 32.6822 0.218C32.6562 0.212 32.6302 0.204 32.6032 0.198C32.0168 0.0780835 31.4206 0.0118099 30.8222 0L30.4222 0.006V0C30.2052 0.012 29.9882 0.02 29.7722 0.037C29.6009 0.0462222 29.4305 0.0672724 29.2622 0.1C28.9099 0.140904 28.562 0.21251 28.2222 0.314C27.8489 0.405169 27.486 0.534518 27.1392 0.7C26.8162 0.83841 26.5094 1.01178 26.2242 1.217C25.903 1.42955 25.6115 1.68376 25.3572 1.973C25.2814 2.04653 25.2121 2.1265 25.1502 2.212C24.9358 2.4782 24.7579 2.77179 24.6212 3.085C24.6112 3.104 24.6002 3.122 24.5902 3.142C24.4092 3.55451 24.2957 3.99345 24.2542 4.442C24.1914 4.98366 24.26 5.53248 24.4542 6.042C24.6833 6.59421 25.036 7.08651 25.4852 7.481C25.8154 7.78696 26.1787 8.05527 26.5682 8.281C26.583 8.29247 26.5983 8.30315 26.6142 8.313C26.9202 8.497 27.2372 8.662 27.5562 8.821C27.7002 8.893 27.8442 8.962 27.9892 9.033C28.1412 9.12 28.2952 9.206 28.4472 9.294C28.6929 9.43313 28.9211 9.60097 29.1272 9.794C29.3331 9.97954 29.469 10.2302 29.5122 10.504C29.5122 10.504 29.5122 10.504 29.5122 10.509V10.743C29.5122 10.743 29.5122 10.743 29.5122 10.748C29.4793 10.9985 29.3688 11.2325 29.1962 11.417C29.021 11.5827 28.8179 11.7161 28.5962 11.811C28.4592 11.87 28.3152 11.911 28.1742 11.957C27.8009 12.0415 27.4188 12.0801 27.0362 12.072L26.5732 12.059C26.1502 12.0322 25.7301 11.9707 25.3172 11.875C25.1312 11.829 24.9452 11.775 24.7592 11.727C24.5682 11.656 24.3772 11.588 24.1872 11.513C23.9292 11.413 23.6792 11.292 23.4272 11.176C23.4042 11.165 23.3662 11.123 23.3532 11.186C23.2922 11.475 23.2332 11.765 23.1732 12.054C23.1676 12.0663 23.1629 12.079 23.1592 12.092C23.0032 12.8253 22.8462 13.5587 22.6882 14.292C22.6846 14.3003 22.6829 14.3094 22.6831 14.3185C22.6834 14.3275 22.6857 14.3365 22.6898 14.3446C22.6939 14.3527 22.6997 14.3598 22.7069 14.3654C22.714 14.371 22.7223 14.375 22.7312 14.377C23.0737 14.5231 23.4271 14.6422 23.7882 14.733C23.9339 14.7772 24.0826 14.8106 24.2332 14.833C24.3455 14.8646 24.4597 14.889 24.5752 14.906C24.8605 14.9626 25.1485 15.0043 25.4382 15.031C25.4652 15.045 25.4972 15.031 25.5242 15.045H25.5842C25.5842 15.045 25.5912 15.045 25.5942 15.045C25.6158 15.0533 25.6391 15.0564 25.6622 15.054C25.6622 15.054 25.6682 15.054 25.6722 15.054H25.7492C25.7822 15.07 25.8192 15.054 25.8492 15.066H25.9252C25.9383 15.0691 25.952 15.0691 25.9652 15.066C25.9834 15.0711 26.0022 15.0738 26.0212 15.074L26.7812 15.111V15.125H27.1082V15.111L27.1412 15.106C27.2037 15.1117 27.2666 15.1117 27.3292 15.106H27.3542H27.3922H27.5492C27.5949 15.1115 27.6412 15.1074 27.6852 15.094H27.6912H27.7392C28.0726 15.0714 28.4045 15.0297 28.7332 14.969C28.9167 14.9408 29.0981 14.9004 29.2762 14.848C29.6463 14.7688 30.0074 14.6526 30.3542 14.501C30.602 14.3994 30.842 14.2798 31.0722 14.143C31.1022 14.148 31.1212 14.124 31.1442 14.112C31.4452 13.9322 31.7276 13.7228 31.9872 13.487C31.9946 13.4847 32.0017 13.4813 32.0082 13.477C32.3212 13.1968 32.5908 12.8716 32.8082 12.512C32.8192 12.497 32.8312 12.482 32.8402 12.466C33.3084 11.6771 33.5254 10.7643 33.4622 9.849C33.419 9.03109 33.0795 8.25687 32.5072 7.671C31.9072 7.0768 31.2123 6.58675 30.4512 6.221C29.9512 5.947 29.4512 5.699 28.9642 5.4C28.9432 5.384 28.9222 5.367 28.9002 5.352C28.6905 5.21719 28.505 5.04818 28.3512 4.852C28.2755 4.75697 28.2211 4.64687 28.1914 4.52908C28.1617 4.41129 28.1576 4.28853 28.1792 4.169C28.2147 4.03678 28.2733 3.91187 28.3522 3.8C28.5883 3.51266 28.9076 3.3055 29.2662 3.207C29.5121 3.14105 29.7635 3.09721 30.0172 3.076C30.0396 3.07607 30.062 3.0744 30.0842 3.071H30.1022C30.1246 3.07109 30.147 3.06942 30.1692 3.066H30.4092L30.9742 3.086C31.0022 3.099 31.0342 3.086 31.0622 3.098H31.1392C31.1662 3.112 31.1982 3.098 31.2252 3.11C31.3208 3.13169 31.4182 3.14408 31.5162 3.147C31.5272 3.1515 31.5386 3.15518 31.5502 3.158C31.8638 3.20786 32.1738 3.27835 32.4782 3.369C32.8085 3.46702 33.1319 3.58696 33.4462 3.728C33.4702 3.739 33.5052 3.776 33.5182 3.715L33.6902 2.886C33.6958 2.87405 33.7005 2.86168 33.7042 2.849C33.7615 2.58233 33.8192 2.314 33.8772 2.044C33.9712 1.60267 34.0665 1.162 34.1632 0.722C34.1742 0.67 34.1632 0.644 34.1102 0.629" fill="#727174"/>
</svg>
